<?xml version="1.0" encoding="UTF-8" standalone="no"?>
<!-- Created with Inkscape (http://www.inkscape.org/) -->

<svg
   xmlns:dc="http://purl.org/dc/elements/1.1/"
   xmlns:cc="http://creativecommons.org/ns#"
   xmlns:rdf="http://www.w3.org/1999/02/22-rdf-syntax-ns#"
   xmlns:svg="http://www.w3.org/2000/svg"
   xmlns="http://www.w3.org/2000/svg"
   xmlns:sodipodi="http://sodipodi.sourceforge.net/DTD/sodipodi-0.dtd"
   xmlns:inkscape="http://www.inkscape.org/namespaces/inkscape"
   id="svg2"
   version="1.1"
   inkscape:version="0.91 r13725"
   xml:space="preserve"
   width="512"
   height="512"
   viewBox="0 0 512 512"
   sodipodi:docname="icon_reverb.svg"
   enable-background="new"><metadata
     id="metadata8"><rdf:RDF><cc:Work
         rdf:about=""><dc:format>image/svg+xml</dc:format><dc:type
           rdf:resource="http://purl.org/dc/dcmitype/StillImage" /><dc:title /></cc:Work></rdf:RDF></metadata><defs
     id="defs6"><clipPath
       clipPathUnits="userSpaceOnUse"
       id="clipPath16"><path
         d="M 0,842 360,842 360,0 0,0 0,842 Z"
         id="path18"
         inkscape:connector-curvature="0" /></clipPath></defs><sodipodi:namedview
     pagecolor="#ffffff"
     bordercolor="#666666"
     borderopacity="1"
     objecttolerance="10000"
     gridtolerance="10000"
     guidetolerance="10000"
     inkscape:pageopacity="0"
     inkscape:pageshadow="2"
     inkscape:window-width="1920"
     inkscape:window-height="1033"
     id="namedview4"
     showgrid="true"
     inkscape:zoom="1.1835752"
     inkscape:cx="-98.854596"
     inkscape:cy="217.46809"
     inkscape:window-x="0"
     inkscape:window-y="0"
     inkscape:window-maximized="1"
     inkscape:current-layer="layer2"
     showguides="false"
     inkscape:snap-bbox="true"
     inkscape:bbox-paths="true"
     inkscape:snap-nodes="true"
     inkscape:snap-others="true"
     inkscape:snap-global="true"
     inkscape:snap-to-guides="false"
     inkscape:snap-page="false"
     inkscape:snap-grids="true"
     inkscape:bbox-nodes="true"
     inkscape:snap-bbox-edge-midpoints="true"
     inkscape:object-paths="true"
     inkscape:snap-intersection-paths="true"
     inkscape:object-nodes="true"
     inkscape:snap-smooth-nodes="true"
     inkscape:snap-bbox-midpoints="false"><inkscape:grid
       type="xygrid"
       id="grid23400"
       spacingy="8"
       spacingx="8"
       empspacing="4"
       dotted="false" /></sodipodi:namedview><g
     inkscape:groupmode="layer"
     id="layer2"
     inkscape:label="Background"
     style="display:inline"><rect
       style="display:inline;fill:#00ff00;fill-opacity:1;fill-rule:evenodd;stroke:none"
       id="rect4179-6"
       width="512"
       height="512"
       x="-580"
       y="0"
       rx="6.428791"
       ry="7.0132265" /><rect
       style="fill:#00ff00;fill-opacity:1;fill-rule:evenodd;stroke:none"
       id="rect4179"
       width="512"
       height="512"
       x="0"
       y="0"
       rx="6.428791"
       ry="7.0132265" /><g
       transform="translate(176,319.99103)"
       id="g9" /><g
       transform="translate(176,319.99103)"
       id="g11" /><g
       transform="translate(176,319.99103)"
       id="g13" /><g
       transform="translate(176,319.99103)"
       id="g15" /><g
       transform="translate(176,319.99103)"
       id="g17" /><g
       transform="translate(176,319.99103)"
       id="g19" /><g
       transform="translate(176,319.99103)"
       id="g21" /><g
       transform="translate(176,319.99103)"
       id="g23" /><g
       transform="translate(176,319.99103)"
       id="g25" /><g
       transform="translate(176,319.99103)"
       id="g27" /><g
       transform="translate(176,319.99103)"
       id="g29" /><g
       transform="translate(176,319.99103)"
       id="g31" /><g
       transform="translate(176,319.99103)"
       id="g33" /><g
       transform="translate(176,319.99103)"
       id="g35" /><g
       transform="translate(176,319.99103)"
       id="g37" /><path
       style="opacity:0.97000002;fill:#000000;fill-opacity:1;fill-rule:evenodd;stroke:none;stroke-width:36.05099869;stroke-linecap:round;stroke-miterlimit:2.66666675;stroke-dasharray:none;stroke-opacity:1"
       id="path4229"
       sodipodi:type="arc"
       sodipodi:cx="256"
       sodipodi:cy="440"
       sodipodi:rx="40"
       sodipodi:ry="40"
       sodipodi:start="3.78157"
       sodipodi:end="3.7815002"
       sodipodi:open="true"
       d="m 223.91563,416.11291 a 40,40 0 0 1 55.9709,-8.1977 40,40 0 0 1 8.19868,55.97076 40,40 0 0 1 -55.97062,8.19965 40,40 0 0 1 -8.20063,-55.97047" /><path
       style="fill:none;fill-rule:evenodd;stroke:#000000;stroke-width:35;stroke-linecap:round;stroke-linejoin:miter;stroke-miterlimit:4;stroke-dasharray:none;stroke-opacity:1"
       d="m 32,448 c 0,-96 64,-224 224,-224 160,0 224,128 224,224"
       id="path4156"
       inkscape:connector-curvature="0"
       sodipodi:nodetypes="czc" /><path
       style="display:inline;fill:none;fill-rule:evenodd;stroke:#000000;stroke-width:35;stroke-linecap:round;stroke-linejoin:miter;stroke-miterlimit:4;stroke-dasharray:none;stroke-opacity:1"
       d="m 96,448 c 0,-96 80,-160 160,-160 80,0 160,64 160,160"
       id="path4156-3"
       inkscape:connector-curvature="0"
       sodipodi:nodetypes="czc" /><path
       style="display:inline;fill:none;fill-rule:evenodd;stroke:#000000;stroke-width:35;stroke-linecap:round;stroke-linejoin:miter;stroke-miterlimit:4;stroke-dasharray:none;stroke-opacity:1"
       d="m 160,448 c 0,-56 48,-96 96,-96 48,0 96,40 96,96"
       id="path4156-3-6"
       inkscape:connector-curvature="0"
       sodipodi:nodetypes="czc" /><path
       style="display:inline;opacity:0.97000002;fill:#ffffff;fill-opacity:1;fill-rule:evenodd;stroke:none;stroke-width:36.05099869;stroke-linecap:round;stroke-miterlimit:2.66666675;stroke-dasharray:none;stroke-opacity:1"
       id="path4229-2"
       sodipodi:type="arc"
       sodipodi:cx="-324"
       sodipodi:cy="440"
       sodipodi:rx="40"
       sodipodi:ry="40"
       sodipodi:start="3.78157"
       sodipodi:end="3.7815002"
       sodipodi:open="true"
       d="m -356.08437,416.11291 a 40,40 0 0 1 55.9709,-8.1977 40,40 0 0 1 8.19868,55.97076 40,40 0 0 1 -55.97062,8.19965 40,40 0 0 1 -8.20063,-55.97047"
       inkscape:export-xdpi="8.9399996"
       inkscape:export-ydpi="8.9399996" /><path
       style="display:inline;fill:none;fill-rule:evenodd;stroke:#ffffff;stroke-width:35;stroke-linecap:round;stroke-linejoin:miter;stroke-miterlimit:4;stroke-dasharray:none;stroke-opacity:1"
       d="m -548,448 c 0,-96 64,-224 224,-224 160,0 224,128 224,224"
       id="path4156-9"
       inkscape:connector-curvature="0"
       sodipodi:nodetypes="czc"
       inkscape:export-xdpi="8.9399996"
       inkscape:export-ydpi="8.9399996" /><path
       style="display:inline;fill:none;fill-rule:evenodd;stroke:#ffffff;stroke-width:35;stroke-linecap:round;stroke-linejoin:miter;stroke-miterlimit:4;stroke-dasharray:none;stroke-opacity:1"
       d="m -484,448 c 0,-96 80,-160 160,-160 80,0 160,64 160,160"
       id="path4156-3-1"
       inkscape:connector-curvature="0"
       sodipodi:nodetypes="czc"
       inkscape:export-xdpi="8.9399996"
       inkscape:export-ydpi="8.9399996" /><path
       style="display:inline;fill:none;fill-rule:evenodd;stroke:#ffffff;stroke-width:35;stroke-linecap:round;stroke-linejoin:miter;stroke-miterlimit:4;stroke-dasharray:none;stroke-opacity:1"
       d="m -420,448 c 0,-56 48,-96 96,-96 48,0 96,40 96,96"
       id="path4156-3-6-2"
       inkscape:connector-curvature="0"
       sodipodi:nodetypes="czc"
       inkscape:export-xdpi="8.9399996"
       inkscape:export-ydpi="8.9399996" /></g><g
     inkscape:groupmode="layer"
     id="layer4"
     inkscape:label="Box"
     style="display:inline" /></svg>