<?xml version="1.0" encoding="UTF-8" standalone="no"?>
<!-- Created with Inkscape (http://www.inkscape.org/) -->

<svg
   xmlns:dc="http://purl.org/dc/elements/1.1/"
   xmlns:cc="http://creativecommons.org/ns#"
   xmlns:rdf="http://www.w3.org/1999/02/22-rdf-syntax-ns#"
   xmlns:svg="http://www.w3.org/2000/svg"
   xmlns="http://www.w3.org/2000/svg"
   xmlns:sodipodi="http://sodipodi.sourceforge.net/DTD/sodipodi-0.dtd"
   xmlns:inkscape="http://www.inkscape.org/namespaces/inkscape"
   width="512"
   height="512"
   viewBox="0 0 511.99999 511.99999"
   id="svg2"
   version="1.1"
   inkscape:version="0.92.5 (2060ec1f9f, 2020-04-08)"
   sodipodi:docname="picto_midi_din_to_bluetooth.svg"
   inkscape:export-filename="/home/me/Google Drive/Projects/MIDI/Android MIDI Looper/Design/Pictograms/picto_otg_usb_female_to_micro_usb_male_ffffff.png"
   inkscape:export-xdpi="22.5"
   inkscape:export-ydpi="22.5">
  <defs
     id="defs4" />
  <sodipodi:namedview
     id="base"
     pagecolor="#ffffff"
     bordercolor="#666666"
     borderopacity="1.0"
     inkscape:pageopacity="0.0"
     inkscape:pageshadow="2"
     inkscape:zoom="0.34017174"
     inkscape:cx="313.23828"
     inkscape:cy="545.29268"
     inkscape:document-units="px"
     inkscape:current-layer="layer1"
     showgrid="true"
     units="px"
     inkscape:window-width="1920"
     inkscape:window-height="1011"
     inkscape:window-x="0"
     inkscape:window-y="0"
     inkscape:window-maximized="1"
     inkscape:snap-bbox="true"
     inkscape:bbox-nodes="true"
     inkscape:snap-intersection-paths="true"
     inkscape:object-nodes="true"
     inkscape:snap-nodes="false">
    <inkscape:grid
       type="xygrid"
       id="grid4136"
       spacingx="4"
       spacingy="4"
       empspacing="4" />
  </sodipodi:namedview>
  <metadata
     id="metadata7">
    <rdf:RDF>
      <cc:Work
         rdf:about="">
        <dc:format>image/svg+xml</dc:format>
        <dc:type
           rdf:resource="http://purl.org/dc/dcmitype/StillImage" />
        <dc:title />
        <cc:license
           rdf:resource="Volcano Mobile" />
      </cc:Work>
    </rdf:RDF>
  </metadata>
  <g
     inkscape:label="Layer 1"
     inkscape:groupmode="layer"
     id="layer1"
     transform="translate(0,-540.36217)">
    <path
       style="fill:none;fill-rule:evenodd;stroke:#000000;stroke-width:14.75127125;stroke-linecap:butt;stroke-linejoin:miter;stroke-miterlimit:4;stroke-dasharray:none;stroke-opacity:1"
       d="M 128,732.36217 H 400"
       id="path4147"
       inkscape:connector-curvature="0"
       sodipodi:nodetypes="cc" />
    <path
       sodipodi:nodetypes="ccccccc"
       style="fill:#000000;fill-opacity:1;fill-rule:evenodd;stroke:none;stroke-width:1px;stroke-linecap:butt;stroke-linejoin:miter;stroke-opacity:1"
       d="m 64,700.36216 h 63.89026 c 8.01346,2.85937 14.32371,7.29094 16,16 v 32.00001 c -3.31625,8.02278 -8.28069,13.84797 -16,16 H 64 v -64.00001"
       id="path4149"
       inkscape:connector-curvature="0" />
    <path
       style="fill:none;fill-rule:evenodd;stroke:#000000;stroke-width:16;stroke-linecap:butt;stroke-linejoin:miter;stroke-miterlimit:4;stroke-dasharray:none;stroke-opacity:1"
       d="m 608,796.36217 320.00001,0"
       id="path4147-6"
       inkscape:connector-curvature="0"
       sodipodi:nodetypes="cc" />
    <g
       id="g867"
       transform="matrix(0.35714845,0,0,0.35714845,-19.42957,703.945)">
      <path
         d="M 197.90953,445.72837 A 212.0509,212.05673 0 0 1 494.2953,402.02284 212.0509,212.05673 0 0 1 538.5815,698.33036 212.0509,212.05673 0 0 1 242.36964,743.1995 212.0509,212.05673 0 0 1 196.92022,447.06817"
         sodipodi:open="true"
         sodipodi:end="3.773716"
         sodipodi:start="3.78157"
         sodipodi:ry="212.05673"
         sodipodi:rx="212.0509"
         sodipodi:cy="572.36383"
         sodipodi:cx="367.99753"
         sodipodi:type="arc"
         id="path4198"
         style="display:inline;opacity:1;fill:none;fill-opacity:1;fill-rule:nonzero;stroke:#000000;stroke-width:24;stroke-linecap:round;stroke-linejoin:round;stroke-miterlimit:4;stroke-dasharray:none;stroke-dashoffset:0;stroke-opacity:1" />
      <path
         sodipodi:nodetypes="ccccc"
         inkscape:connector-curvature="0"
         id="path4367"
         d="m 304,716.36215 h 128.00001 v 64.00004 H 304 Z"
         style="display:inline;fill:#000000;fill-opacity:1;fill-rule:evenodd;stroke:none;stroke-width:24;stroke-linecap:round;stroke-linejoin:round;stroke-miterlimit:4;stroke-dasharray:none;stroke-opacity:1" />
      <path
         d="m 342.3325,425.25244 a 32,32.000015 0 0 1 44.72674,-6.5953 32,32.000015 0 0 1 6.6831,44.71372 32,32.000015 0 0 1 -44.70049,6.77089 32,32.000015 0 0 1 -6.85864,-44.68713"
         sodipodi:open="true"
         sodipodi:end="3.773716"
         sodipodi:start="3.78157"
         sodipodi:ry="32.000015"
         sodipodi:rx="32"
         sodipodi:cy="444.36212"
         sodipodi:cx="368"
         sodipodi:type="arc"
         id="path4202-5"
         style="display:inline;opacity:1;fill:#000000;fill-opacity:1;fill-rule:nonzero;stroke:none;stroke-width:24;stroke-linecap:round;stroke-linejoin:round;stroke-miterlimit:4;stroke-dasharray:none;stroke-dashoffset:0;stroke-opacity:1" />
      <path
         d="m 214.3325,553.25244 a 32,32.000015 0 0 1 44.72674,-6.5953 32,32.000015 0 0 1 6.6831,44.71372 32,32.000015 0 0 1 -44.70049,6.77089 32,32.000015 0 0 1 -6.85864,-44.68713"
         sodipodi:open="true"
         sodipodi:end="3.773716"
         sodipodi:start="3.78157"
         sodipodi:ry="32.000015"
         sodipodi:rx="32"
         sodipodi:cy="572.36212"
         sodipodi:cx="240"
         sodipodi:type="arc"
         id="path4202-3-6"
         style="display:inline;opacity:1;fill:#000000;fill-opacity:1;fill-rule:nonzero;stroke:none;stroke-width:24;stroke-linecap:round;stroke-linejoin:round;stroke-miterlimit:4;stroke-dasharray:none;stroke-dashoffset:0;stroke-opacity:1" />
      <path
         d="m 470.3325,553.25252 a 31.999998,31.999985 0 0 1 44.72674,-6.59529 31.999998,31.999985 0 0 1 6.6831,44.71367 31.999998,31.999985 0 0 1 -44.70049,6.77089 31.999998,31.999985 0 0 1 -6.85864,-44.68709"
         sodipodi:open="true"
         sodipodi:end="3.773716"
         sodipodi:start="3.78157"
         sodipodi:ry="31.999985"
         sodipodi:rx="31.999998"
         sodipodi:cy="572.36218"
         sodipodi:cx="496"
         sodipodi:type="arc"
         id="path4202-6-2"
         style="display:inline;opacity:1;fill:#000000;fill-opacity:1;fill-rule:nonzero;stroke:none;stroke-width:24;stroke-linecap:round;stroke-linejoin:round;stroke-miterlimit:4;stroke-dasharray:none;stroke-dashoffset:0;stroke-opacity:1" />
      <path
         transform="rotate(45)"
         d="m 639.2689,-2.6038396 a 32,32.000015 0 0 1 44.72674,-6.5952999 32,32.000015 0 0 1 6.6831,44.7137205 32,32.000015 0 0 1 -44.70049,6.77089 32,32.000015 0 0 1 -6.85864,-44.6871306"
         sodipodi:open="true"
         sodipodi:end="3.773716"
         sodipodi:start="3.78157"
         sodipodi:ry="32.000015"
         sodipodi:rx="32"
         sodipodi:cy="16.505842"
         sodipodi:cx="664.9364"
         sodipodi:type="arc"
         id="path4202-0"
         style="display:inline;opacity:1;fill:#000000;fill-opacity:1;fill-rule:nonzero;stroke:none;stroke-width:24;stroke-linecap:round;stroke-linejoin:round;stroke-miterlimit:4;stroke-dasharray:none;stroke-dashoffset:0;stroke-opacity:1" />
      <path
         transform="rotate(45)"
         d="m 511.2689,125.39615 a 32,32.000015 0 0 1 44.72674,-6.5953 32,32.000015 0 0 1 6.6831,44.71372 32,32.000015 0 0 1 -44.70049,6.77089 32,32.000015 0 0 1 -6.85864,-44.68713"
         sodipodi:open="true"
         sodipodi:end="3.773716"
         sodipodi:start="3.78157"
         sodipodi:ry="32.000015"
         sodipodi:rx="32"
         sodipodi:cy="144.50583"
         sodipodi:cx="536.9364"
         sodipodi:type="arc"
         id="path4202-3-9-9"
         style="display:inline;opacity:1;fill:#000000;fill-opacity:1;fill-rule:nonzero;stroke:none;stroke-width:24;stroke-linecap:round;stroke-linejoin:round;stroke-miterlimit:4;stroke-dasharray:none;stroke-dashoffset:0;stroke-opacity:1" />
    </g>
    <rect
       style="opacity:1;fill:none;fill-opacity:1;fill-rule:nonzero;stroke:#000000;stroke-width:5.33333206;stroke-linecap:round;stroke-linejoin:round;stroke-miterlimit:4;stroke-dasharray:none;stroke-dashoffset:0;stroke-opacity:1"
       id="rect4166-3"
       width="37.333324"
       height="42.666656"
       x="34.666664"
       y="711.02887" />
    <path
       sodipodi:nodetypes="ccccccc"
       style="fill:#000000;fill-opacity:1;fill-rule:evenodd;stroke:none;stroke-width:0.79056937px;stroke-linecap:butt;stroke-linejoin:miter;stroke-opacity:1"
       d="m 96,712.36217 h 60 c 16,0 20,4 20,12 v 16 c 0,8 -8,12 -20,12 l -60,0 v -40"
       id="path4149-6"
       inkscape:connector-curvature="0" />
    <path
       style="fill:none;fill-rule:evenodd;stroke:#000000;stroke-width:11.10015106;stroke-linecap:butt;stroke-linejoin:miter;stroke-miterlimit:4;stroke-dasharray:none;stroke-opacity:1"
       d="m 379.55011,875.06169 66.6009,66.60096 -33.30045,33.30045 V 841.76124 l 33.30045,33.30045 -66.6009,66.60096"
       id="path4141-3-7"
       inkscape:connector-curvature="0"
       sodipodi:nodetypes="cccccc" />
    <g
       id="g935"
       transform="matrix(0,0.33436977,-0.33436977,0,665.52914,594.01523)">
      <path
         d="m 383.91563,764.47509 a 40,40 0 0 1 55.9709,-8.1977 40,40 0 0 1 8.19868,55.97076 40,40 0 0 1 -55.97062,8.19965 40,40 0 0 1 -8.20063,-55.97047"
         sodipodi:open="true"
         sodipodi:end="3.7815002"
         sodipodi:start="3.78157"
         sodipodi:ry="40"
         sodipodi:rx="40"
         sodipodi:cy="788.36218"
         sodipodi:cx="416"
         sodipodi:type="arc"
         id="path4229"
         style="display:inline;opacity:0.97000002;fill:#000000;fill-opacity:1;fill-rule:evenodd;stroke:none;stroke-width:36.05099869;stroke-linecap:round;stroke-miterlimit:2.66666675;stroke-dasharray:none;stroke-opacity:1" />
      <path
         sodipodi:nodetypes="czc"
         inkscape:connector-curvature="0"
         id="path4156"
         d="m 192,796.36217 c 0,-96 64,-224 224,-224 160,0 224,128 224,224"
         style="display:inline;fill:none;fill-rule:evenodd;stroke:#000000;stroke-width:35;stroke-linecap:round;stroke-linejoin:miter;stroke-miterlimit:4;stroke-dasharray:none;stroke-opacity:1" />
      <path
         sodipodi:nodetypes="czc"
         inkscape:connector-curvature="0"
         id="path4156-3"
         d="m 256,796.36217 c 0,-96 80,-160 160,-160 80,0 160,64 160,160"
         style="display:inline;fill:none;fill-rule:evenodd;stroke:#000000;stroke-width:35;stroke-linecap:round;stroke-linejoin:miter;stroke-miterlimit:4;stroke-dasharray:none;stroke-opacity:1" />
      <path
         sodipodi:nodetypes="czc"
         inkscape:connector-curvature="0"
         id="path4156-3-6"
         d="m 320,796.36217 c 0,-56 48,-96 96,-96 48,0 96,40 96,96"
         style="display:inline;fill:none;fill-rule:evenodd;stroke:#000000;stroke-width:35;stroke-linecap:round;stroke-linejoin:miter;stroke-miterlimit:4;stroke-dasharray:none;stroke-opacity:1" />
    </g>
  </g>
</svg>
