<?xml version="1.0" encoding="UTF-8" standalone="no"?>
<!-- Created with Inkscape (http://www.inkscape.org/) -->

<svg
   xmlns:dc="http://purl.org/dc/elements/1.1/"
   xmlns:cc="http://creativecommons.org/ns#"
   xmlns:rdf="http://www.w3.org/1999/02/22-rdf-syntax-ns#"
   xmlns:svg="http://www.w3.org/2000/svg"
   xmlns="http://www.w3.org/2000/svg"
   xmlns:sodipodi="http://sodipodi.sourceforge.net/DTD/sodipodi-0.dtd"
   xmlns:inkscape="http://www.inkscape.org/namespaces/inkscape"
   width="512"
   height="512"
   viewBox="0 0 511.99999 511.99999"
   id="svg2"
   version="1.1"
   inkscape:version="0.92.5 (2060ec1f9f, 2020-04-08)"
   sodipodi:docname="picto_usb_port_female.svg"
   inkscape:export-filename="/home/me/Google Drive/Projects/MIDI/Android MIDI Looper/Design/Pictograms/picto_usb_port_female_ffffff.png"
   inkscape:export-xdpi="22.5"
   inkscape:export-ydpi="22.5">
  <defs
     id="defs4" />
  <sodipodi:namedview
     id="base"
     pagecolor="#ffffff"
     bordercolor="#666666"
     borderopacity="1.0"
     inkscape:pageopacity="0.0"
     inkscape:pageshadow="2"
     inkscape:zoom="0.34341677"
     inkscape:cx="263.81284"
     inkscape:cy="511.98631"
     inkscape:document-units="px"
     inkscape:current-layer="layer1"
     showgrid="true"
     units="px"
     inkscape:window-width="1920"
     inkscape:window-height="1011"
     inkscape:window-x="0"
     inkscape:window-y="0"
     inkscape:window-maximized="1"
     inkscape:snap-bbox="true"
     inkscape:bbox-nodes="true"
     inkscape:snap-intersection-paths="true"
     inkscape:object-nodes="true"
     inkscape:snap-nodes="false">
    <inkscape:grid
       type="xygrid"
       id="grid4136"
       spacingx="4"
       spacingy="4"
       empspacing="4" />
  </sodipodi:namedview>
  <metadata
     id="metadata7">
    <rdf:RDF>
      <cc:Work
         rdf:about="">
        <dc:format>image/svg+xml</dc:format>
        <dc:type
           rdf:resource="http://purl.org/dc/dcmitype/StillImage" />
        <dc:title />
        <cc:license
           rdf:resource="Volcano Mobile" />
      </cc:Work>
    </rdf:RDF>
  </metadata>
  <g
     inkscape:label="Layer 1"
     inkscape:groupmode="layer"
     id="layer1"
     transform="translate(0,-540.36217)">
    <path
       style="fill:#000000;fill-opacity:1;stroke:none;stroke-width:24;stroke-miterlimit:4;stroke-dasharray:none;stroke-opacity:1"
       d="M 60.605469,192 C 53.517238,192.85359 48.878958,197.10436 48,201.47852 v 109.04296 c 0.879683,4.3775 5.524933,8.63013 12.623047,9.47852 H 451.37695 c 7.90987,-0.94541 12.79102,-6.12053 12.79102,-10.97852 V 202.98047 c 0,-4.85439 -4.87391,-10.02918 -12.77344,-10.98047 z m 20.699219,16 H 430.69531 C 439.83175,208 448,214.89043 448,224.08789 v 15.82617 C 448,249.11151 439.83175,256 430.69531,256 H 432 v 8 h -32 v -8 h -32 v 8 h -32 v -8 h -32 v 8 h -32 v -8 h -32 v 8 h -32 v -8 h -32 v 8 h -32 v -8 h -32 v 8 H 80 v -8 h 1.304688 C 72.16825,256 64,249.11152 64,239.91406 V 224.08789 C 64,214.89043 72.16825,208 81.304688,208 Z"
       transform="translate(0,540.36217)"
       id="rect821"
       inkscape:connector-curvature="0"
       sodipodi:nodetypes="cccccssccssssccccccccccccccccccccccccccsss" />
  </g>
</svg>
