<?xml version="1.0" encoding="UTF-8" standalone="no"?>
<!-- Created with Inkscape (http://www.inkscape.org/) -->

<svg
   xmlns:dc="http://purl.org/dc/elements/1.1/"
   xmlns:cc="http://creativecommons.org/ns#"
   xmlns:rdf="http://www.w3.org/1999/02/22-rdf-syntax-ns#"
   xmlns:svg="http://www.w3.org/2000/svg"
   xmlns="http://www.w3.org/2000/svg"
   xmlns:sodipodi="http://sodipodi.sourceforge.net/DTD/sodipodi-0.dtd"
   xmlns:inkscape="http://www.inkscape.org/namespaces/inkscape"
   width="512"
   height="512"
   viewBox="0 0 511.99999 511.99999"
   id="svg2"
   version="1.1"
   inkscape:version="0.92.5 (2060ec1f9f, 2020-04-08)"
   sodipodi:docname="picto_otg_micro_usb_male_to_usb_female.svg"
   inkscape:export-filename="/home/me/Google Drive/Projects/MIDI/MIDI Clock/Pictograms/picto_otg_micro_usb_male_to_usb_female_ffffff.png"
   inkscape:export-xdpi="22.5"
   inkscape:export-ydpi="22.5">
  <defs
     id="defs4" />
  <sodipodi:namedview
     id="base"
     pagecolor="#ffffff"
     bordercolor="#666666"
     borderopacity="1.0"
     inkscape:pageopacity="0.0"
     inkscape:pageshadow="2"
     inkscape:zoom="0.56938903"
     inkscape:cx="339.19281"
     inkscape:cy="225.0832"
     inkscape:document-units="px"
     inkscape:current-layer="layer1"
     showgrid="true"
     units="px"
     inkscape:window-width="1920"
     inkscape:window-height="1011"
     inkscape:window-x="0"
     inkscape:window-y="0"
     inkscape:window-maximized="1"
     inkscape:snap-bbox="true"
     inkscape:bbox-nodes="true"
     inkscape:snap-intersection-paths="true"
     inkscape:object-nodes="true"
     inkscape:snap-nodes="false">
    <inkscape:grid
       type="xygrid"
       id="grid4136"
       spacingx="4"
       spacingy="4"
       empspacing="4" />
  </sodipodi:namedview>
  <metadata
     id="metadata7">
    <rdf:RDF>
      <cc:Work
         rdf:about="">
        <dc:format>image/svg+xml</dc:format>
        <dc:type
           rdf:resource="http://purl.org/dc/dcmitype/StillImage" />
        <dc:title />
        <cc:license
           rdf:resource="Volcano Mobile" />
      </cc:Work>
    </rdf:RDF>
  </metadata>
  <g
     inkscape:label="Layer 1"
     inkscape:groupmode="layer"
     id="layer1"
     transform="translate(0,-540.36217)">
    <path
       style="fill:none;fill-rule:evenodd;stroke:#000000;stroke-width:16;stroke-linecap:butt;stroke-linejoin:miter;stroke-miterlimit:4;stroke-dasharray:none;stroke-opacity:1"
       d="m 608,796.36217 320.00001,0"
       id="path4147-6"
       inkscape:connector-curvature="0"
       sodipodi:nodetypes="cc" />
    <g
       id="g4183"
       transform="matrix(-1,0,0,1,514,-63.999997)">
      <path
         sodipodi:nodetypes="cc"
         inkscape:connector-curvature="0"
         id="path4147"
         d="m 128,796.36217 320.00001,0"
         style="fill:none;fill-rule:evenodd;stroke:#000000;stroke-width:16;stroke-linecap:butt;stroke-linejoin:miter;stroke-miterlimit:4;stroke-dasharray:none;stroke-opacity:1" />
      <path
         inkscape:connector-curvature="0"
         id="path4149"
         d="m 32.000001,764.36216 79.999999,0 16,16 0,32.00001 -16,16 -79.999999,0 0,-64.00001"
         style="fill:#000000;fill-opacity:1;fill-rule:evenodd;stroke:none;stroke-width:1px;stroke-linecap:butt;stroke-linejoin:miter;stroke-opacity:1" />
      <path
         sodipodi:nodetypes="ccccccc"
         inkscape:connector-curvature="0"
         id="path4149-3"
         d="m 464.00001,772.36216 -64,0 -16,12 0,24.00001 16,12 64,0 0,-48.00001"
         style="fill:#000000;fill-opacity:1;fill-rule:evenodd;stroke:none;stroke-width:1px;stroke-linecap:butt;stroke-linejoin:miter;stroke-opacity:1" />
      <rect
         y="780.36218"
         x="452"
         height="32"
         width="28"
         id="rect4166"
         style="opacity:1;fill:none;fill-opacity:1;fill-rule:nonzero;stroke:#000000;stroke-width:4;stroke-linecap:round;stroke-linejoin:round;stroke-miterlimit:4;stroke-dasharray:none;stroke-dashoffset:0;stroke-opacity:1" />
    </g>
    <path
       inkscape:connector-curvature="0"
       style="opacity:1;fill:#000000;fill-opacity:1;fill-rule:nonzero;stroke:none;stroke-width:12;stroke-linecap:round;stroke-linejoin:round;stroke-miterlimit:4;stroke-dasharray:none;stroke-dashoffset:0;stroke-opacity:1"
       d="m 143.17385,828.36217 c 1.56583,0 2.82617,1.12492 2.82617,2.52197 l 0,42.95605 c 0,1.39705 -1.26034,2.52198 -2.82617,2.52198 l -106.34769,0 c -1.56582,0 -2.82617,-1.12493 -2.82617,-2.52198 l 0,-42.95605 c 0,-1.39705 1.26035,-2.52197 2.82617,-2.52197 l 106.34769,0 z m -19.1128,6.86426 -68.11916,0 a 2.0002006,2.0002006 0 0 0 -1.40527,0.57715 l -11.9209,11.77246 a 2.0002006,2.0002006 0 0 0 -0.59473,1.42286 l 0,13.4541 c 0,2.01931 0.54627,3.89775 1.87207,5.20703 1.32581,1.30929 3.20465,1.83838 5.23682,1.83838 l 81.74319,0 c 2.03216,0 3.9109,-0.52957 5.23584,-1.83887 1.32494,-1.30929 1.87036,-3.18612 1.87304,-5.2041 l 0.0181,-13.4541 a 2.0002006,2.0002006 0 0 0 -0.5957,-1.42676 L 125.46538,835.8026 a 2.0002006,2.0002006 0 0 0 -1.4043,-0.57617 z m -0.81982,4 10.75781,10.60791 -0.0171,12.61622 c -0.002,1.34556 -0.30764,1.99129 -0.68457,2.36377 -0.37692,0.37247 -1.05051,0.68408 -2.42431,0.68408 l -81.74319,0 c -1.37381,0 -2.04909,-0.31209 -2.42627,-0.68457 -0.37718,-0.37248 -0.68262,-1.01661 -0.68262,-2.36084 l 0,-12.61817 10.74219,-10.6084 66.47805,0 z m -10.80372,14.81788 -4,0 0,1.44287 -9.62402,0 0,-1.44287 -4,0 0,1.44287 -9.62403,0 0,-1.44287 -4,0 0,1.44287 -9.62354,0 0,-1.44287 -4,0 0,1.44287 -8.43165,0 c -0.77807,0 -1.5042,0.17478 -2.1416,0.56689 -0.6374,0.39212 -1.27344,1.13069 -1.27344,2.11133 l 0,1.84815 c 0,0.98064 0.63604,1.71921 1.27344,2.11132 0.6374,0.39212 1.36353,0.5669 2.1416,0.5669 l 59.1802,0 c 0.77807,0 1.5042,-0.17478 2.1416,-0.5669 0.6374,-0.39211 1.27344,-1.13068 1.27344,-2.11132 l 0,-1.84815 c 0,-0.98064 -0.63604,-1.71921 -1.27344,-2.11133 -0.6374,-0.39211 -1.36353,-0.56689 -2.1416,-0.56689 l -5.87696,0 0,-1.44287 z"
       id="rect4142" />
    <g
       id="g836"
       transform="matrix(1,0,0,-1,0,1710.8564)">
      <path
         sodipodi:nodetypes="cccccssccssssccccccccccccccccccccccccccsss"
         inkscape:connector-curvature="0"
         id="rect821"
         d="m 309.33093,828.36217 c -2.99765,0.36099 -4.95921,2.15867 -5.33093,4.00853 v 46.11497 c 0.37202,1.85127 2.33653,3.64972 5.33837,4.00852 H 474.5906 C 477.93573,882.09437 480,879.90575 480,877.85131 v -44.84543 c 0,-2.05295 -2.06121,-4.2414 -5.40197,-4.64371 z m 8.75383,6.7665 h 147.75945 c 3.86385,0 7.31826,2.91401 7.31826,6.80367 v 6.69299 c 0,3.88965 -3.45441,6.80284 -7.31826,6.80284 h 0.55176 v 3.38325 h -13.533 v -3.38325 h -13.533 v 3.38325 h -13.53299 v -3.38325 h -13.533 v 3.38325 h -13.533 v -3.38325 h -13.53299 v 3.38325 h -13.533 v -3.38325 h -13.533 v 3.38325 h -13.533 v -3.38325 H 331.066 v 3.38325 h -13.533 v -3.38325 h 0.55176 c -3.86386,0 -7.31826,-2.91318 -7.31826,-6.80284 v -6.69299 c 0,-3.88966 3.4544,-6.80367 7.31826,-6.80367 z"
         style="fill:#000000;fill-opacity:1;stroke:none;stroke-width:24;stroke-miterlimit:4;stroke-dasharray:none;stroke-opacity:1" />
    </g>
  </g>
</svg>
